#Comment line ignore any data following # character 
#Hierarchical Translation and Rotation (.htr) file 
[Header]	
#Header keywords are followed by a single value 
FileType HTR		#Single word string
DataType HTRS		#Translation followed by rotation and scale data
FileVersion 1		#integer
NumSegments 23		#integer
NumFrames 4		#integer
DataFrameRate 30		#integer, data frame rate in this file
EulerRotationOrder ZYX
CalibrationUnits mm
RotationUnits Degrees
GlobalAxisofGravity Y
BoneLengthAxis Y
ScaleFactor 1.00
[SegmentNames&Hierarchy]
#CHILD	PARENT
MASTER GLOBAL
weapon MASTER
arm_lock_bottom_part1 weapon
arm_lock_bottom_part2 weapon
arm_lock_bottom_part3 weapon
arm_lock_bottom_part4 weapon
arm_lock_top_part1 weapon
arm_lock_top_part2 weapon
arm_lock_top_part3 weapon
front_lower_left_part1 weapon
front_lower_right_part1 weapon
front_top_left_part weapon
front_top_right_part1 weapon
scope_part1 weapon
scope_part2 weapon
front_lower_left_part2 front_lower_left_part1
front_lower_left_part3 front_lower_left_part2
front_lower_right_part2 front_lower_right_part1
front_lower_right_part3 front_lower_right_part2
front_top_left_part2 front_top_left_part
front_top_left_part3 front_top_left_part2
front_top_right_part2 front_top_right_part1
front_top_right_part3 front_top_right_part2
[BasePosition]
#SegmentName Tx, Ty, Tz, Rx, Ry, Rz, BoneLength
MASTER 0.000000 0.000000 0.000000 -90.000000 0.000000 0.000000 10.000000 
weapon 0.000000 0.000000 0.000000 0.000000 0.000000 0.000000 10.000000 
arm_lock_bottom_part1 0.000000 0.000000 0.000000 0.000000 0.000000 0.000000 10.000000 
arm_lock_bottom_part2 0.000000 0.000000 0.000000 0.000000 0.000000 0.000000 10.000000 
arm_lock_bottom_part3 0.000000 0.000000 0.000000 0.000000 0.000000 0.000000 10.000000 
arm_lock_bottom_part4 0.000000 0.000000 0.000000 0.000000 0.000000 0.000000 10.000000 
arm_lock_top_part1 0.000000 0.000000 0.000000 0.000000 0.000000 0.000000 10.000000 
arm_lock_top_part2 0.000000 0.000000 0.000000 0.000000 0.000000 0.000000 10.000000 
arm_lock_top_part3 0.000000 0.000000 0.000000 0.000000 0.000000 0.000000 10.000000 
front_lower_left_part1 0.000000 0.000000 0.000000 0.000000 0.000000 0.000000 10.000000 
front_lower_right_part1 0.000000 0.000000 0.000000 0.000000 0.000000 0.000000 10.000000 
front_top_left_part 0.000000 0.000000 0.000000 0.000000 0.000000 0.000000 10.000000 
front_top_right_part1 0.000000 0.000000 0.000000 0.000000 0.000000 0.000000 10.000000 
scope_part1 0.000000 0.000000 0.000000 0.000000 0.000000 0.000000 10.000000 
scope_part2 0.000000 0.000000 0.000000 0.000000 0.000000 0.000000 10.000000 
front_lower_left_part2 0.000000 0.000000 0.000000 0.000000 0.000000 0.000000 10.000000 
front_lower_left_part3 0.000000 0.000000 0.000000 0.000000 0.000000 0.000000 10.000000 
front_lower_right_part2 0.000000 0.000000 0.000000 0.000000 0.000000 0.000000 10.000000 
front_lower_right_part3 0.000000 0.000000 0.000000 0.000000 0.000000 0.000000 10.000000 
front_top_left_part2 0.000000 0.000000 0.000000 0.000000 0.000000 0.000000 10.000000 
front_top_left_part3 0.000000 0.000000 0.000000 0.000000 0.000000 0.000000 10.000000 
front_top_right_part2 0.000000 0.000000 0.000000 0.000000 0.000000 0.000000 10.000000 
front_top_right_part3 0.000000 0.000000 0.000000 0.000000 0.000000 0.000000 10.000000 
#Beginning of Data. Separated by tabs
#Fr	Tx	Ty	Tz	Rx	Ry	Rz	SF
[MASTER]
52 0.000000 -0.000019 0.000002 0.002458 -0.000000 0.000000 0.000019
53 0.000000 -0.000019 0.000002 0.002458 -0.000000 0.000000 0.000019
54 0.000000 -0.000019 0.000002 0.002458 -0.000000 0.000000 0.000019
55 0.000000 -0.000019 0.000002 0.002458 -0.000000 0.000000 0.000019
[weapon]
52 10.182476 -168.977936 -13.084106 -0.002473 -0.000000 -0.000020 169.789337
53 10.182495 -168.978012 -13.084106 -0.002473 -0.000000 -0.000020 169.789413
54 10.182495 -168.977982 -13.084106 -0.002473 -0.000000 -0.000020 169.789383
55 10.182476 -168.978058 -13.084259 -0.002473 -0.000000 -0.000020 169.789474
[arm_lock_bottom_part1]
52 -48.820034 98.566185 -83.498901 179.998215 -0.001518 9.389182 138.096909
53 -48.820034 98.566185 -83.498901 179.998215 -0.001518 9.389182 138.096909
54 -48.820034 98.566185 -83.498901 179.998215 -0.001518 9.389182 138.096909
55 -48.820034 98.566185 -83.498901 179.998215 -0.001518 9.389182 138.096909
[arm_lock_bottom_part2]
52 -49.022778 58.781982 -78.526520 179.998245 -0.001562 6.578084 109.658417
53 -49.022778 58.781982 -78.526520 179.998245 -0.001562 6.578086 109.658417
54 -49.022778 58.781982 -78.526520 179.998245 -0.001562 6.578084 109.658417
55 -49.022778 58.781982 -78.526520 179.998245 -0.001562 6.578084 109.658417
[arm_lock_bottom_part3]
52 -51.266434 -16.798199 -66.920387 179.998291 -0.001596 4.325218 85.957924
53 -51.266434 -16.798199 -66.920387 179.998291 -0.001596 4.325218 85.957924
54 -51.266434 -16.798199 -66.920387 179.998291 -0.001596 4.325218 85.957924
55 -51.266434 -16.798199 -66.920387 179.998291 -0.001596 4.325218 85.957924
[arm_lock_bottom_part4]
52 -40.078083 -93.503029 -59.330029 -179.999222 -7.951346 1.320369 117.767235
53 -40.078083 -93.503029 -59.330029 -179.999222 -7.951346 1.320369 117.767235
54 -40.078083 -93.503029 -59.330029 -179.999222 -7.951346 1.320369 117.767235
55 -40.078083 -93.503029 -59.330029 -179.999222 -7.951346 1.320369 117.767235
[arm_lock_top_part1]
52 -47.532562 61.554470 78.379471 0.001509 0.001798 -10.001317 110.415756
53 -47.532562 61.554470 78.379471 0.001509 0.001798 -10.001317 110.415756
54 -47.532562 61.554470 78.379471 0.001509 0.001798 -10.001317 110.415756
55 -47.532562 61.554470 78.379471 0.001509 0.001798 -10.001317 110.415756
[arm_lock_top_part2]
52 -45.622692 13.709888 63.393517 0.001544 0.001768 -7.724405 79.297722
53 -45.622692 13.709888 63.393517 0.001544 0.001768 -7.724405 79.297722
54 -45.622692 13.709888 63.393517 0.001544 0.001768 -7.724405 79.297722
55 -45.622692 13.709888 63.393517 0.001544 0.001768 -7.724405 79.297722
[arm_lock_top_part3]
52 -43.788521 -73.747162 72.061607 0.001593 0.001724 -4.534721 112.022110
53 -43.788521 -73.747162 72.061607 0.001593 0.001724 -4.534721 112.022110
54 -43.788521 -73.747162 72.061607 0.001593 0.001724 -4.534721 112.022110
55 -43.788521 -73.747162 72.061607 0.001593 0.001724 -4.534721 112.022110
[front_lower_left_part1]
52 -46.798580 475.070923 -43.538815 0.000000 0.000003 -0.000000 479.351746
53 -46.798580 475.070923 -43.538815 0.000000 0.000003 -0.000000 479.351746
54 -46.798580 475.070923 -43.538815 0.000000 0.000003 -0.000000 479.351746
55 -46.798580 475.070923 -43.538815 0.000000 0.000003 -0.000000 479.351746
[front_lower_right_part1]
52 26.433397 475.070923 -43.538826 0.000000 -0.000000 -0.000000 477.793640
53 26.433397 475.070923 -43.538826 0.000000 -0.000000 -0.000000 477.793640
54 26.433397 475.070923 -43.538826 0.000000 -0.000000 -0.000000 477.793640
55 26.433397 475.070923 -43.538826 0.000000 -0.000000 -0.000000 477.793640
[front_top_left_part]
52 -47.897255 494.788696 7.031011 -0.000000 0.000003 -0.000001 497.151367
53 -47.897255 494.788696 7.031011 -0.000000 0.000003 -0.000001 497.151367
54 -47.897255 494.788696 7.031011 -0.000000 0.000003 -0.000001 497.151367
55 -47.897255 494.788696 7.031011 -0.000000 0.000003 -0.000001 497.151367
[front_top_right_part1]
52 27.532097 494.788727 7.031008 0.000000 -0.000000 -0.000000 495.604004
53 27.532097 494.788727 7.031008 0.000000 -0.000000 -0.000000 495.604004
54 27.532097 494.788727 7.031008 0.000000 -0.000000 -0.000000 495.604004
55 27.532097 494.788727 7.031008 0.000000 -0.000000 -0.000000 495.604004
[scope_part1]
52 -10.754304 87.338959 156.453140 -169.884888 60.887066 -171.142273 179.503021
53 -10.754304 87.338959 156.453140 -170.177994 59.914448 -171.481659 179.503021
54 -10.754304 87.338959 156.453140 -170.385452 59.199066 -171.720352 179.503021
55 -10.754304 87.338959 156.453140 -170.510330 58.761116 -171.868454 179.503021
[scope_part2]
52 -10.754300 82.597374 156.860001 -174.399933 28.850033 -177.292282 177.603607
53 -10.754300 82.597374 156.860001 -174.459412 27.665907 -177.422836 177.603607
54 -10.754300 82.597374 156.860001 -174.500931 26.798660 -177.515045 177.603607
55 -10.754300 82.597374 156.860001 -174.527634 26.262030 -177.575211 177.603607
[front_lower_left_part2]
52 -55.193569 141.618454 32.268322 0.001673 0.001646 0.936457 155.381348
53 -55.193569 141.618454 32.268322 0.001660 0.001660 0.001681 155.381348
54 -55.193569 141.618454 32.268322 0.001660 0.001660 0.001660 155.381348
55 -55.193569 141.618454 32.268322 0.001660 0.001660 0.001660 155.381348
[front_lower_left_part3]
52 -10.943815 108.509422 -11.124855 33.354973 -16.011906 -13.479057 109.625839
53 -10.943815 108.509422 -11.124855 33.351616 -16.017443 -13.469765 109.625839
54 -10.943815 108.509422 -11.124855 33.348259 -16.022978 -13.460472 109.625839
55 -10.943815 108.509422 -11.124855 33.348259 -16.022978 -13.460472 109.625839
[front_lower_right_part2]
52 55.193596 141.618317 32.268330 0.001650 0.001669 -0.656157 155.381226
53 55.193596 141.618317 32.268330 0.001660 0.001660 0.001645 155.381226
54 55.193596 141.618317 32.268330 0.001660 0.001660 0.001660 155.381226
55 55.193596 141.618317 32.268330 0.001660 0.001660 0.001660 155.381226
[front_lower_right_part3]
52 10.943837 108.509453 -11.124846 33.334259 16.065393 13.401720 109.625862
53 10.943837 108.509453 -11.124846 33.349384 16.025185 13.464867 109.625862
54 10.943837 108.509453 -11.124846 33.349384 16.025185 13.464869 109.625862
55 10.943837 108.509453 -11.124846 33.349384 16.025185 13.464869 109.625862
[front_top_left_part2]
52 -45.277134 136.986725 54.951027 10.050738 -0.000009 1.427592 154.385880
53 -42.569164 137.487854 54.839329 9.931354 0.000002 0.000012 154.020767
54 -42.569099 137.487869 54.839325 10.287803 0.000002 -0.000020 154.020767
55 -42.569099 137.487885 54.839325 11.072139 0.000002 -0.000020 154.020767
[front_top_left_part3]
52 -28.216480 149.656799 49.959614 -25.851976 -3.855262 -66.438004 160.278793
53 -28.216480 149.656799 49.959614 -25.846498 -3.899318 -66.531898 160.278793
54 -28.216480 149.656799 49.959614 -25.784798 -3.899068 -66.524750 160.278793
55 -28.216480 149.656799 49.959614 -25.617599 -3.901490 -66.517029 160.278793
[front_top_right_part2]
52 44.648952 136.121063 55.237297 12.577333 -0.112107 -1.767249 153.537079
53 42.569130 137.487991 54.839333 12.404929 0.001468 0.001789 154.020874
54 42.569080 137.488022 54.839321 12.758187 0.001465 0.001834 154.020874
55 42.569080 137.488022 54.839314 13.544771 0.001452 0.001844 154.020874
[front_top_right_part3]
52 28.216452 149.656952 49.959507 -25.769114 4.407851 67.585846 160.278885
53 28.216452 149.656952 49.959507 -25.844734 3.901551 66.529243 160.278885
54 28.216452 149.656952 49.959507 -25.844738 3.901540 66.529228 160.278885
55 28.216452 149.656952 49.959507 -25.844738 3.901540 66.529228 160.278885
